<?xml version="1.0" encoding="UTF-8"?>
<svg id="Layer_2" data-name="Layer 2" xmlns="http://www.w3.org/2000/svg" xmlns:xlink="http://www.w3.org/1999/xlink" viewBox="0 0 342.25 227.38">
  <defs>
    <style>
      .cls-1 {
        filter: url(#drop-shadow-1);
      }

      .cls-2 {
        fill: #007972;
      }
    </style>
    <filter id="drop-shadow-1" x="-8.48" y="-8.62" width="373" height="258" filterUnits="userSpaceOnUse">
      <feOffset dx="7" dy="7"/>
      <feGaussianBlur result="blur" stdDeviation="5"/>
      <feFlood flood-color="#231f20" flood-opacity=".75"/>
      <feComposite in2="blur" operator="in"/>
      <feComposite in="SourceGraphic"/>
    </filter>
  </defs>
  <g id="Web">
    <g class="cls-1">
      <path class="cls-2" d="M1.99,224.16v-11.4l31.1-32.69c2.75-3.14,4.96-5.97,6.65-8.47,1.68-2.5,2.91-4.77,3.69-6.81.77-2.04,1.16-3.88,1.16-5.52,0-2.79-.41-5.13-1.23-7.01-.82-1.88-2.02-3.31-3.59-4.29-1.57-.97-3.51-1.46-5.81-1.46s-4.32.66-6.05,1.99c-1.73,1.33-3.07,3.15-4.02,5.45-.95,2.3-1.43,4.89-1.43,7.77H0v56.86c0,2.12.75,4.06,1.99,5.57Z"/>
      <path class="cls-2" d="M333.47,0H8.79C3.93,0,0,3.93,0,8.79v152.94c0-5.94,1.45-11.36,4.35-16.28,2.9-4.92,6.94-8.85,12.13-11.79,5.18-2.94,11.18-4.42,18.01-4.42s13.11,1.11,17.94,3.32c4.83,2.22,8.47,5.41,10.93,9.6,2.46,4.19,3.69,9.23,3.69,15.12,0,3.37-.53,6.6-1.6,9.7-1.06,3.1-2.59,6.17-4.58,9.2-1.99,3.03-4.42,6.15-7.28,9.34-2.86,3.19-6.1,6.58-9.73,10.17l-12.49,14.42h38.14v17.28h263.96c4.85,0,8.79-3.93,8.79-8.79V8.79c0-4.85-3.93-8.79-8.79-8.79Z"/>
      <path class="cls-2" d="M8.79,227.38c-2.74,0-5.18-1.25-6.8-3.22v3.22h6.8Z"/>
    </g>
  </g>
</svg>