<?xml version="1.0" encoding="UTF-8"?>
<svg id="Layer_2" data-name="Layer 2" xmlns="http://www.w3.org/2000/svg" xmlns:xlink="http://www.w3.org/1999/xlink" viewBox="0 0 342.25 227.38">
  <defs>
    <style>
      .cls-1 {
        filter: url(#drop-shadow-1);
      }

      .cls-2 {
        fill: #086;
      }
    </style>
    <filter id="drop-shadow-1" x="-8.58" y="-8.62" width="373" height="258" filterUnits="userSpaceOnUse">
      <feOffset dx="7" dy="7"/>
      <feGaussianBlur result="blur" stdDeviation="5"/>
      <feFlood flood-color="#231f20" flood-opacity=".75"/>
      <feComposite in2="blur" operator="in"/>
      <feComposite in="SourceGraphic"/>
    </filter>
  </defs>
  <g id="Web">
    <g class="cls-1">
      <path class="cls-2" d="M11.03,220.7c-3.32-2.28-5.99-5.2-8.01-8.77-2.02-3.56-3.02-7.83-3.02-12.79v19.45c0,4.85,3.93,8.79,8.79,8.79h25.36c-4.03,0-8.06-.54-12.09-1.63-4.03-1.08-7.71-2.77-11.03-5.05Z"/>
      <path class="cls-2" d="M333.47,0H8.79C3.93,0,0,3.93,0,8.79v190.35h22.46c0,2.04.56,3.89,1.69,5.55,1.13,1.66,2.65,2.98,4.55,3.95,1.9.97,3.96,1.46,6.18,1.46,2.75,0,5.08-.52,7.01-1.56,1.93-1.04,3.4-2.45,4.42-4.22,1.02-1.77,1.53-3.74,1.53-5.91,0-3.28-.54-5.89-1.63-7.84-1.09-1.95-2.66-3.37-4.72-4.25-2.06-.89-4.53-1.33-7.41-1.33h-10.9v-16.68h10.9c2.79,0,5.08-.5,6.88-1.5,1.8-1,3.13-2.41,4.02-4.25.89-1.84,1.33-4.02,1.33-6.55,0-1.95-.41-3.74-1.23-5.38-.82-1.64-2.07-2.96-3.75-3.95-1.69-1-3.83-1.49-6.45-1.49-1.77,0-3.5.37-5.18,1.1-1.68.73-3.07,1.76-4.15,3.09-1.08,1.33-1.63,2.95-1.63,4.85H1.46c0-5.49,1.52-10.2,4.55-14.12,3.03-3.92,7.04-6.93,12.03-9.04,4.98-2.1,10.35-3.16,16.11-3.16,6.87,0,12.89,1.05,18.08,3.16,5.18,2.1,9.22,5.21,12.13,9.3,2.9,4.1,4.35,9.16,4.35,15.18,0,3.32-.78,6.45-2.33,9.37-1.55,2.92-3.72,5.49-6.51,7.71-1.81,1.44-3.83,2.67-6.04,3.71,2.82,1.01,5.32,2.32,7.5,3.93,2.88,2.13,5.1,4.75,6.65,7.87,1.55,3.12,2.33,6.7,2.33,10.73,0,4.52-.91,8.55-2.73,12.09-1.82,3.54-4.36,6.53-7.64,8.97-3.28,2.44-7.11,4.29-11.49,5.55-4.39,1.26-9.15,1.89-14.29,1.89h299.31c4.85,0,8.79-3.93,8.79-8.79V8.79c0-4.85-3.93-8.79-8.79-8.79Z"/>
    </g>
  </g>
</svg>