<?xml version="1.0" encoding="UTF-8"?>
<svg id="Layer_2" data-name="Layer 2" xmlns="http://www.w3.org/2000/svg" xmlns:xlink="http://www.w3.org/1999/xlink" viewBox="0 0 1990 590">
  <defs>
    <style>
      .cls-1 {
        letter-spacing: 0em;
      }

      .cls-2 {
        letter-spacing: -.02em;
      }

      .cls-3 {
        filter: url(#drop-shadow-6);
      }

      .cls-3, .cls-4 {
        fill: #003b68;
      }

      .cls-5 {
        letter-spacing: -.01em;
      }

      .cls-6 {
        letter-spacing: -.02em;
      }

      .cls-7 {
        filter: url(#drop-shadow-11);
      }

      .cls-7, .cls-8, .cls-9 {
        fill: #006a7a;
      }

      .cls-10 {
        font-family: Roboto-Bold, Roboto;
        font-size: 24px;
        font-variation-settings: 'wght' 700, 'wdth' 100;
      }

      .cls-10, .cls-11 {
        fill: #fff;
      }

      .cls-10, .cls-8 {
        font-weight: 700;
      }

      .cls-12 {
        letter-spacing: 0em;
      }

      .cls-13 {
        letter-spacing: -.02em;
      }

      .cls-14 {
        letter-spacing: -.03em;
      }

      .cls-15 {
        filter: url(#drop-shadow-7);
      }

      .cls-15, .cls-16, .cls-17 {
        fill: #007972;
      }

      .cls-18 {
        fill: none;
      }

      .cls-19 {
        letter-spacing: -.01em;
      }

      .cls-20 {
        filter: url(#drop-shadow-4);
      }

      .cls-20, .cls-21, .cls-22 {
        fill: #086;
      }

      .cls-23 {
        letter-spacing: 0em;
      }

      .cls-24 {
        letter-spacing: -.02em;
      }

      .cls-16 {
        filter: url(#drop-shadow-10);
      }

      .cls-25 {
        fill: #022640;
        font-family: Montserrat-Medium, Montserrat;
        font-size: 31.69px;
        font-weight: 500;
      }

      .cls-26 {
        filter: url(#drop-shadow-3);
      }

      .cls-26, .cls-27 {
        fill: #0f9855;
      }

      .cls-21 {
        filter: url(#drop-shadow-2);
      }

      .cls-28 {
        fill: #8fcb80;
        filter: url(#drop-shadow-1);
      }

      .cls-29 {
        letter-spacing: -.01em;
      }

      .cls-22 {
        filter: url(#drop-shadow-9);
      }

      .cls-30 {
        fill: #16110d;
      }

      .cls-27 {
        filter: url(#drop-shadow-8);
      }

      .cls-31 {
        letter-spacing: -.01em;
      }

      .cls-8 {
        font-family: Roboto-ExtraBold, Roboto;
        font-size: 53.38px;
        font-variation-settings: 'wght' 800, 'wdth' 100;
      }

      .cls-9 {
        filter: url(#drop-shadow-5);
      }

      .cls-32 {
        clip-path: url(#clippath);
      }

      .cls-33 {
        letter-spacing: 0em;
      }

      .cls-4 {
        filter: url(#drop-shadow-12);
      }
    </style>
    <clipPath id="clippath">
      <rect class="cls-18" width="1990" height="590"/>
    </clipPath>
    <filter id="drop-shadow-1" x="364" y="102" width="403" height="468" filterUnits="userSpaceOnUse">
      <feOffset dx="3" dy="3"/>
      <feGaussianBlur result="blur" stdDeviation="2"/>
      <feFlood flood-color="#231f20" flood-opacity=".4"/>
      <feComposite in2="blur" operator="in"/>
      <feComposite in="SourceGraphic"/>
    </filter>
    <filter id="drop-shadow-2" x="647" y="102" width="120" height="93" filterUnits="userSpaceOnUse">
      <feOffset dx="3" dy="3"/>
      <feGaussianBlur result="blur-2" stdDeviation="2"/>
      <feFlood flood-color="#231f20" flood-opacity=".4"/>
      <feComposite in2="blur-2" operator="in"/>
      <feComposite in="SourceGraphic"/>
    </filter>
    <filter id="drop-shadow-3" x="830" y="166" width="808" height="77" filterUnits="userSpaceOnUse">
      <feOffset dx="3" dy="3"/>
      <feGaussianBlur result="blur-3" stdDeviation="2"/>
      <feFlood flood-color="#231f20" flood-opacity=".4"/>
      <feComposite in2="blur-3" operator="in"/>
      <feComposite in="SourceGraphic"/>
    </filter>
    <filter id="drop-shadow-4" x="830" y="248" width="808" height="77" filterUnits="userSpaceOnUse">
      <feOffset dx="3" dy="3"/>
      <feGaussianBlur result="blur-4" stdDeviation="2"/>
      <feFlood flood-color="#231f20" flood-opacity=".4"/>
      <feComposite in2="blur-4" operator="in"/>
      <feComposite in="SourceGraphic"/>
    </filter>
    <filter id="drop-shadow-5" x="830" y="410" width="808" height="77" filterUnits="userSpaceOnUse">
      <feOffset dx="3" dy="3"/>
      <feGaussianBlur result="blur-5" stdDeviation="2"/>
      <feFlood flood-color="#231f20" flood-opacity=".4"/>
      <feComposite in2="blur-5" operator="in"/>
      <feComposite in="SourceGraphic"/>
    </filter>
    <filter id="drop-shadow-6" x="830" y="491" width="808" height="78" filterUnits="userSpaceOnUse">
      <feOffset dx="3" dy="3"/>
      <feGaussianBlur result="blur-6" stdDeviation="2"/>
      <feFlood flood-color="#231f20" flood-opacity=".4"/>
      <feComposite in2="blur-6" operator="in"/>
      <feComposite in="SourceGraphic"/>
    </filter>
    <filter id="drop-shadow-7" x="830" y="329" width="808" height="77" filterUnits="userSpaceOnUse">
      <feOffset dx="3" dy="3"/>
      <feGaussianBlur result="blur-7" stdDeviation="2"/>
      <feFlood flood-color="#231f20" flood-opacity=".4"/>
      <feComposite in2="blur-7" operator="in"/>
      <feComposite in="SourceGraphic"/>
    </filter>
    <filter id="drop-shadow-8" x="782" y="175" width="61" height="63" filterUnits="userSpaceOnUse">
      <feOffset dx="3" dy="3"/>
      <feGaussianBlur result="blur-8" stdDeviation="2"/>
      <feFlood flood-color="#231f20" flood-opacity=".4"/>
      <feComposite in2="blur-8" operator="in"/>
      <feComposite in="SourceGraphic"/>
    </filter>
    <filter id="drop-shadow-9" x="782" y="255" width="61" height="64" filterUnits="userSpaceOnUse">
      <feOffset dx="3" dy="3"/>
      <feGaussianBlur result="blur-9" stdDeviation="2"/>
      <feFlood flood-color="#231f20" flood-opacity=".4"/>
      <feComposite in2="blur-9" operator="in"/>
      <feComposite in="SourceGraphic"/>
    </filter>
    <filter id="drop-shadow-10" x="782" y="335" width="61" height="64" filterUnits="userSpaceOnUse">
      <feOffset dx="3" dy="3"/>
      <feGaussianBlur result="blur-10" stdDeviation="2"/>
      <feFlood flood-color="#231f20" flood-opacity=".4"/>
      <feComposite in2="blur-10" operator="in"/>
      <feComposite in="SourceGraphic"/>
    </filter>
    <filter id="drop-shadow-11" x="782" y="416" width="61" height="64" filterUnits="userSpaceOnUse">
      <feOffset dx="3" dy="3"/>
      <feGaussianBlur result="blur-11" stdDeviation="2"/>
      <feFlood flood-color="#231f20" flood-opacity=".4"/>
      <feComposite in2="blur-11" operator="in"/>
      <feComposite in="SourceGraphic"/>
    </filter>
    <filter id="drop-shadow-12" x="782" y="498" width="61" height="64" filterUnits="userSpaceOnUse">
      <feOffset dx="3" dy="3"/>
      <feGaussianBlur result="blur-12" stdDeviation="2"/>
      <feFlood flood-color="#231f20" flood-opacity=".4"/>
      <feComposite in2="blur-12" operator="in"/>
      <feComposite in="SourceGraphic"/>
    </filter>
  </defs>
  <g id="Web">
    <g class="cls-32">
      <g>
        <path class="cls-28" d="M582.92,105.35h-169.42c-25.68,0-46.51,20.82-46.51,46.51v362.51c0,25.68,20.82,46.51,46.51,46.51h297.99c25.68,0,46.51-20.82,46.51-46.51V244.87c0-25.68-20.82-46.51-46.51-46.51h-35.56c-25.68,0-46.51-20.82-46.51-46.51h0c0-25.68-20.82-46.51-46.51-46.51Z"/>
        <path class="cls-21" d="M650.22,145.2h0c0,22.01,17.45,39.85,38.98,39.85h29.81c21.53,0,38.98-17.84,38.98-39.85h0c0-22.01-17.45-39.85-38.98-39.85h-29.81c-21.53,0-38.98,17.84-38.98,39.85Z"/>
        <polygon class="cls-11" points="722.46 123.4 722.46 161.11 685.59 124.24 683.15 126.68 720.02 163.56 682.3 163.56 682.3 167.01 725.92 167.01 725.92 123.4 722.46 123.4"/>
      </g>
      <rect class="cls-26" x="833.27" y="169.77" width="795.61" height="64.14" rx="32.07" ry="32.07"/>
      <rect class="cls-20" x="833.27" y="251.05" width="795.61" height="64.14" rx="32.07" ry="32.07"/>
      <rect class="cls-9" x="833.27" y="413.61" width="795.61" height="64.14" rx="32.07" ry="32.07"/>
      <rect class="cls-3" x="833.27" y="494.89" width="795.61" height="64.14" rx="32.07" ry="32.07"/>
      <rect class="cls-15" x="833.27" y="332.33" width="795.61" height="64.14" rx="32.07" ry="32.07"/>
      <polygon class="cls-27" points="806.47 180.1 828.41 202.04 785.5 202.04 785.5 204.89 828.41 204.89 806.47 226.83 808.48 228.84 833.85 203.47 808.48 178.09 806.47 180.1"/>
      <polygon class="cls-22" points="806.47 260.28 828.41 282.22 785.5 282.22 785.5 285.06 828.41 285.06 806.47 307.01 808.48 309.02 833.85 283.64 808.48 258.27 806.47 260.28"/>
      <polygon class="cls-16" points="806.47 340.45 828.41 362.4 785.5 362.4 785.5 365.24 828.41 365.24 806.47 387.19 808.48 389.2 833.85 363.82 808.48 338.44 806.47 340.45"/>
      <polygon class="cls-7" points="806.47 421.87 828.41 443.81 785.5 443.81 785.5 446.65 828.41 446.65 806.47 468.6 808.48 470.61 833.85 445.23 808.48 419.86 806.47 421.87"/>
      <polygon class="cls-4" points="806.47 503.87 828.41 525.81 785.5 525.81 785.5 528.65 828.41 528.65 806.47 550.6 808.48 552.61 833.85 527.23 808.48 501.86 806.47 503.87"/>
      <g>
        <g>
          <path class="cls-30" d="M486.66,415.29c-18.05-10.44-46.34-10.44-64.39,0l-69.24,39.97c-14.29,8.25-38.43,8.24-52.72,0-5.85-3.37-9.2-7.69-9.2-11.84s3.36-8.47,9.2-11.85l79.88-46.13c9.71-5.6,15.05-13.4,15.05-21.96,0-8.56-5.35-16.36-15.03-21.95l-1.75-1.02c-18.06-10.42-46.36-10.42-64.4,0l-154.43,89.17c-14.29,8.25-38.43,8.24-52.72,0l-28.02-16.18c-5.85-3.38-9.2-7.7-9.2-11.85s3.36-8.47,9.19-11.84l242.11-139.02c9.14,3.91,22.06,3.52,30.35-1.27,9.12-5.27,9.12-13.81,0-19.07-9.12-5.27-23.91-5.27-33.04,0-5.68,3.28-7.82,7.83-6.42,12.06l-238.83,137.17c-9.71,5.6-15.05,13.4-15.05,21.96s5.34,16.36,15.05,21.96l28.02,16.18c18.04,10.43,46.34,10.43,64.39,0l154.43-89.16c14.29-8.25,38.43-8.25,52.71-.01l1.75,1.02c5.85,3.37,9.2,7.69,9.2,11.83s-3.36,8.47-9.2,11.85l-79.88,46.12c-9.71,5.6-15.05,13.4-15.05,21.96s5.34,16.36,15.05,21.96c18.04,10.43,46.34,10.44,64.39,0l69.24-39.97c14.3-8.24,38.44-8.25,52.63-.05l85.61,51.39,5.55-15.55-85.24-45.91Z"/>
          <path class="cls-17" d="M488.02,405.56c-18.05-10.44-46.34-10.44-64.39,0l-69.24,39.97c-14.29,8.25-38.43,8.24-52.72,0-5.85-3.37-9.2-7.69-9.2-11.84s3.36-8.47,9.2-11.85l79.88-46.13c9.71-5.6,15.05-13.4,15.05-21.96,0-8.56-5.35-16.36-15.03-21.95l-1.75-1.02c-18.06-10.42-46.36-10.42-64.4,0l-154.43,89.17c-14.29,8.25-38.43,8.24-52.72,0l-28.02-16.18c-5.85-3.38-9.2-7.7-9.2-11.85s3.36-8.47,9.19-11.84l244.62-140.46c8.67,2.37,19.31,1.53,26.48-2.61,9.12-5.27,9.12-13.81,0-19.07-9.12-5.27-23.91-5.27-33.04,0-6.93,4-8.56,9.89-4.96,14.8l-238.92,137.22c-9.71,5.6-15.05,13.4-15.05,21.96s5.34,16.36,15.05,21.96l28.02,16.18c18.04,10.43,46.34,10.43,64.39,0l154.43-89.16c14.29-8.25,38.43-8.25,52.71-.01l1.75,1.02c5.85,3.37,9.2,7.69,9.2,11.83s-3.36,8.47-9.2,11.85l-79.88,46.12c-9.71,5.6-15.05,13.4-15.05,21.96s5.34,16.36,15.05,21.96c18.04,10.43,46.34,10.44,64.39,0l69.24-39.97c14.3-8.24,38.44-8.25,52.63-.05l85.61,51.39,12.97-5.84-92.65-55.61Z"/>
        </g>
        <g>
          <g>
            <path class="cls-30" d="M618.38,477.61c-6.15-3.55-16.11-3.55-22.26,0-6.14,3.55-6.14,9.3,0,12.85,6.15,3.55,16.11,3.55,22.26,0,6.14-3.55,6.14-9.3,0-12.85Z"/>
            <path class="cls-30" d="M642.6,461.2c-19.82-11.45-50.87-11.46-70.71,0-10.24,5.91-15.88,14.02-15.88,22.84,0,8.82,5.64,16.94,15.88,22.84,9.91,5.73,22.63,8.59,35.35,8.59s25.45-2.86,35.36-8.59c10.24-5.91,15.88-14.03,15.88-22.84,0-8.82-5.64-16.93-15.88-22.84ZM638.4,499.6c-17.17,9.91-45.11,9.91-62.29,0-7.53-4.35-11.67-9.88-11.67-15.56,0-5.69,4.14-11.21,11.67-15.56,8.59-4.95,19.87-7.44,31.15-7.44s22.56,2.48,31.15,7.44c7.53,4.35,11.67,9.87,11.67,15.56,0,5.69-4.14,11.22-11.67,15.56Z"/>
          </g>
          <g>
            <path class="cls-17" d="M618.38,469.18c-6.15-3.55-16.11-3.55-22.26,0-6.15,3.55-6.15,9.3,0,12.85,6.15,3.55,16.11,3.55,22.26,0,6.14-3.55,6.14-9.3,0-12.85Z"/>
            <path class="cls-17" d="M642.6,452.76c-19.82-11.45-50.87-11.46-70.71,0-10.24,5.91-15.88,14.02-15.88,22.84,0,8.82,5.64,16.94,15.88,22.84,9.91,5.73,22.63,8.59,35.35,8.59s25.45-2.86,35.36-8.59c10.24-5.91,15.88-14.03,15.88-22.84,0-8.82-5.64-16.93-15.88-22.84ZM638.4,491.16c-17.17,9.91-45.11,9.91-62.29,0-7.53-4.35-11.67-9.88-11.67-15.56,0-5.69,4.14-11.21,11.67-15.56,8.59-4.96,19.87-7.44,31.15-7.44s22.56,2.48,31.15,7.44c7.53,4.35,11.67,9.87,11.67,15.56,0,5.69-4.14,11.22-11.67,15.56Z"/>
          </g>
          <g>
            <g>
              <g>
                <path class="cls-17" d="M600.63,219.08c-33.21,15.3-62.98,61.63-65.8,104.45-1.13,17.14,2.26,30.99,8.98,40.44l47.83,90.7,22.93,11.2c2.06-4.67,35.52-163.98,37.06-168.77h0c3.59-11.2,28.06-18.23,28.24-29.14.67-39.89-46.86-63.79-79.24-48.88ZM596.43,321.28c-13.07,6.53-23.1-1.48-22.28-17.75.81-16.06,11.89-33.91,24.65-40,12.63-6.03,22.38,1.65,21.89,17.28-.5,15.83-11.32,34.01-24.26,40.48Z"/>
                <path class="cls-17" d="M604.77,227.24c-33.21,15.3-62.98,61.64-65.8,104.45-.54,8.14.01,15.48,1.39,22.02,37.89,22.78,66.27,21.45,95.86,41.64,9.21-42.81,18.75-87.59,19.55-90.09,3.59-11.2,21.93-19.59,22.12-30.49.67-39.89-40.73-62.44-73.11-47.52ZM600.57,329.45c-13.07,6.53-23.1-1.48-22.27-17.75.81-16.06,11.89-33.91,24.65-40,12.63-6.03,22.38,1.65,21.89,17.28-.5,15.83-11.32,34.01-24.26,40.48Z"/>
                <path class="cls-30" d="M615.82,469.28l-26.03-12.71-.38-.73-47.82-90.7c-7.14-9.99-10.4-24.53-9.27-41.77,2.84-42.99,33.01-90.8,67.26-106.58h0c17.22-7.95,39.78-5.62,57.45,5.9,16.43,10.72,25.68,27.23,25.37,45.31-.12,7.04-7.67,12.21-14.98,17.21-5.88,4.02-11.95,8.18-13.39,12.66-.6,1.9-6.84,30.98-13.45,61.76-13.1,61.04-22.47,104.47-23.7,107.26l-1.06,2.4ZM593.48,452.76l19.48,9.52c3.08-12.41,14.28-64.57,22.68-103.71,8.01-37.31,12.95-60.27,13.58-62.24,1.96-6.13,8.77-10.79,15.34-15.28,6.25-4.27,12.71-8.69,12.79-13.12.27-16.31-8.14-31.26-23.09-41-16.25-10.6-36.88-12.77-52.58-5.55h0c-32.75,15.09-61.61,60.99-64.34,102.33-1.06,16.06,1.89,29.48,8.52,38.8l47.61,90.25ZM587.75,326.08c-2.98,0-5.73-.78-8.14-2.36-5.54-3.62-8.44-11.02-7.98-20.31.86-17.07,12.32-35.59,26.08-42.16,6.48-3.09,12.69-3.07,17.47.06,5.38,3.52,8.31,10.65,8.02,19.57-.53,16.72-12.04,35.85-25.65,42.66h0c-3.39,1.69-6.72,2.54-9.81,2.54ZM607.01,264.01c-2.2,0-4.61.6-7.12,1.8-12.04,5.74-22.45,22.73-23.21,37.85-.38,7.46,1.7,13.23,5.7,15.84,3.35,2.19,7.94,2.01,12.93-.48,12.12-6.06,22.38-23.24,22.86-38.3.23-7.12-1.87-12.66-5.74-15.19-1.56-1.02-3.4-1.53-5.42-1.53Z"/>
              </g>
              <g>
                <path class="cls-30" d="M680.4,274.8c.67-39.89-24.46-59.45-56.84-44.53-33.21,15.3-62.98,61.63-65.8,104.45-1.13,17.14,2.26,30.99,8.98,40.44l47.83,90.7,54.57-143.34c2.07-4.67,3.88-9.43,5.42-14.23h0c3.59-11.2,5.66-22.58,5.84-33.48Z"/>
                <path class="cls-30" d="M615.82,469.28l-3.07-1.48-48.23-91.47c-7.13-9.98-10.4-24.53-9.27-41.78,2.83-42.99,33.01-90.8,67.26-106.58,15.34-7.06,29.92-6.94,41.06.32,12.85,8.38,19.73,24.92,19.36,46.54h0c-.19,10.93-2.19,22.44-5.96,34.22-1.56,4.86-3.41,9.73-5.51,14.47l-55.63,145.75ZM644.27,227.82c-6.14,0-12.79,1.58-19.65,4.74-32.75,15.09-61.61,60.99-64.34,102.33-1.06,16.07,1.89,29.49,8.52,38.81l45.4,86.05,52.59-138.13c2.08-4.7,3.87-9.41,5.37-14.1,3.62-11.3,5.55-22.33,5.72-32.76.33-19.55-5.9-34.94-17.08-42.23-4.81-3.14-10.42-4.71-16.54-4.71Z"/>
              </g>
            </g>
            <path class="cls-17" d="M616.47,363.65l-24.34-16.56c-3.41-2.32-3.17-9.14.55-15.23h0c3.72-6.09,9.5-9.14,12.91-6.82l12.27,8.35,22.65-46.01c3.19-6.36,8.95-10.35,12.86-8.92h0c3.91,1.43,4.49,7.74,1.3,14.1l-33.93,68.49c-1.09,2.17-3.11,3.4-4.27,2.61Z"/>
          </g>
        </g>
      </g>
    </g>
    <text class="cls-8" transform="translate(848.14 79.64) scale(.97 1)"><tspan x="0" y="0">RESOURCES</tspan></text>
    <text class="cls-10" transform="translate(851.51 211.56)"><tspan class="cls-6" x="0" y="0">F</tspan><tspan class="cls-1" x="12.81" y="0">our dedicated wa</tspan><tspan class="cls-31" x="195.34" y="0">r</tspan><tspan class="cls-1" x="203.79" y="0">ehouses in the United States</tspan><tspan class="cls-1" x="0" y="78.27">S</tspan><tspan class="cls-29" x="14.66" y="78.27">ev</tspan><tspan class="cls-1" x="39.23" y="78.27">en ope</tspan><tspan class="cls-13" x="110.89" y="78.27">r</tspan><tspan class="cls-12" x="119.17" y="78.27">ations segmented wa</tspan><tspan class="cls-5" x="346.73" y="78.27">r</tspan><tspan class="cls-1" x="355.18" y="78.27">ehouses in Mexico</tspan><tspan class="cls-1" x="0" y="150.54">Dependable fleet of 71 </tspan><tspan class="cls-29" x="247.4" y="150.54">v</tspan><tspan class="cls-1" x="259.28" y="150.54" xml:space="preserve">ehicles  including d</tspan><tspan class="cls-23" x="464.31" y="150.54">r</tspan><tspan class="cls-33" x="473.19" y="150.54">y </tspan><tspan class="cls-19" x="491" y="150.54">v</tspan><tspan class="cls-1" x="502.86" y="150.54">ans, 53’ t</tspan><tspan class="cls-13" x="599.29" y="150.54">r</tspan><tspan class="cls-1" x="607.57" y="150.54">ailers,</tspan><tspan class="cls-1" x="0" y="176.8">and b</tspan><tspan class="cls-6" x="58.67" y="176.8">o</tspan><tspan class="cls-12" x="71.85" y="176.8">x trucks.</tspan><tspan class="cls-1" x="0" y="241.07">Experienced team of 80+ indust</tspan><tspan class="cls-23" x="337.64" y="241.07">r</tspan><tspan class="cls-1" x="346.52" y="241.07">y p</tspan><tspan class="cls-2" x="377.71" y="241.07">r</tspan><tspan class="cls-1" x="386.01" y="241.07">o</tspan><tspan class="cls-24" x="399.44" y="241.07">f</tspan><tspan class="cls-33" x="407.63" y="241.07">essionals</tspan><tspan class="cls-14" x="0" y="323.34">V</tspan><tspan class="cls-1" x="15.02" y="323.34">ast network of local indust</tspan><tspan class="cls-23" x="297.19" y="323.34">r</tspan><tspan class="cls-33" x="306.07" y="323.34">y contacts, suppliers, and se</tspan><tspan class="cls-23" x="608.42" y="323.34">r</tspan><tspan class="cls-1" x="617.29" y="323.34">vice p</tspan><tspan class="cls-2" x="680.01" y="323.34">r</tspan><tspan class="cls-19" x="688.31" y="323.34">o</tspan><tspan class="cls-1" x="701.57" y="323.34">viders</tspan></text>
    <text class="cls-25" transform="translate(847 118.3) scale(.97 1)"><tspan x="0" y="0">Count on OUR resources and infrastructure to</tspan><tspan x="0" y="30.95">work for you!</tspan></text>
  </g>
</svg>