<?xml version="1.0" encoding="UTF-8"?><svg id="uuid-425a0753-bc4a-464f-ad07-ee7b84f55b37" xmlns="http://www.w3.org/2000/svg" viewBox="0 0 69.46 78.25"><defs><style>.uuid-80aabf4b-a629-42cb-a7d7-f97367d16045{fill:#a0c53a;}.uuid-b9ab2dc5-733d-4f1f-b79b-43b67d56fea2{fill:#132144;}</style></defs><g id="uuid-279b390d-9749-465b-afbf-7fd254e6ba5a"><path class="uuid-b9ab2dc5-733d-4f1f-b79b-43b67d56fea2" d="M11.98,15.02c1.85,1.5,3.69,3,5.54,4.5-2.15,1.61-5.61,4.69-8.1,9.65-2.85,5.68-2.9,10.8-2.9,13.29,0,5.28,1.27,10.16,3.8,14.66,2.53,4.5,5.93,7.98,10.21,10.45,4.27,2.47,9.08,3.71,14.41,3.71,8.06,0,14.79-2.77,20.19-8.3,5.4-5.53,8.09-12.51,8.09-20.93,0-9.26-3.63-17.01-10.88-23.24,1.7-1.43,3.39-2.87,5.09-4.3,1,.86,2.26,2.05,3.58,3.59.43.5,3.03,3.55,5.02,7.84,2.29,4.93,3.44,10.44,3.44,16.52,0,11.57-3.85,20.7-11.55,27.38-6.5,5.61-14.36,8.41-23.56,8.41-9.68,0-17.83-3.39-24.44-10.18C3.3,61.27,0,52.77,0,42.55c0-6.17,1.22-11.75,3.66-16.73,2.07-4.21,4.83-7.29,5.32-7.84,1.13-1.26,2.18-2.25,2.99-2.96Z"/><path class="uuid-80aabf4b-a629-42cb-a7d7-f97367d16045" d="M34.73,22.32l-22.63,10.26v19.9l10.63-4.74v17.6c0,6.37,6.94,11.42,13,10.99,5.26-.38,10.99-5.53,10.99-10.99v-17.74l10.63,4.88v-19.9l-22.63-10.26ZM51.33,42.71l-10.65-4.76v7.09s.02.03.02.04v19.68c-.96,7.45-11.3,7.46-11.92-.43v-11.96h0v-14.4l-10.63,4.75v-5.82l16.59-7.68,16.59,7.68v5.82Z"/><polygon class="uuid-80aabf4b-a629-42cb-a7d7-f97367d16045" points="34.73 12.5 23.51 6.26 23.46 6.28 12.09 .08 12.09 8.45 34.73 20.8 57.38 8.45 57.38 0 49.09 4.52 34.73 12.5"/><path class="uuid-80aabf4b-a629-42cb-a7d7-f97367d16045" d="M12.11,22.68h6.04c-.01-6.44-.02-12.89-.03-19.33-2.01-1.09-4.02-2.18-6.03-3.27,0,7.53.02,15.07.03,22.6Z"/><path class="uuid-80aabf4b-a629-42cb-a7d7-f97367d16045" d="M51.34,22.68h6.04c0-7.56,0-15.12,0-22.68-2.02,1.09-4.05,2.19-6.07,3.28.01,6.47.02,12.94.04,19.4Z"/></g></svg>