<?xml version="1.0" encoding="UTF-8"?>
<svg id="Layer_2" data-name="Layer 2" xmlns="http://www.w3.org/2000/svg" viewBox="0 0 510.77 405">
  <defs>
    <style>
      .cls-1 {
        fill: #89c780;
      }

      .cls-2 {
        fill: #89c77f;
      }

      .cls-3 {
        fill: #16110d;
      }

      .cls-4 {
        fill: #100b0b;
      }

      .cls-5 {
        fill: #92c980;
      }
    </style>
  </defs>
  <g id="Web">
    <g>
      <g>
        <path class="cls-3" d="M241.11,360.1c1.3.75,1.3,1.97,0,2.72-1.3.75-3.41.75-4.71,0-1.3-.75-1.3-1.97,0-2.72,1.3-.75,3.41-.75,4.71,0Z"/>
        <path class="cls-3" d="M253.43,352.98c1.3.75,1.3,1.97,0,2.72-1.3.75-3.41.75-4.71,0-1.3-.75-1.3-1.97,0-2.72,1.3-.75,3.41-.75,4.71,0Z"/>
        <path class="cls-3" d="M265.75,345.87c1.3.75,1.3,1.97,0,2.72-1.3.75-3.41.75-4.71,0-1.3-.75-1.3-1.97,0-2.72,1.3-.75,3.41-.75,4.71,0Z"/>
        <path class="cls-3" d="M241.11,345.87c1.3.75,1.3,1.97,0,2.72-1.3.75-3.41.75-4.71,0-1.3-.75-1.3-1.97,0-2.72,1.3-.75,3.41-.75,4.71,0Z"/>
        <path class="cls-3" d="M253.43,338.75c1.3.75,1.3,1.97,0,2.72-1.3.75-3.41.75-4.71,0-1.3-.75-1.3-1.97,0-2.72,1.3-.75,3.41-.75,4.71,0Z"/>
        <path class="cls-3" d="M241.11,331.64c1.3.75,1.3,1.97,0,2.72-1.3.75-3.41.75-4.71,0-1.3-.75-1.3-1.97,0-2.72,1.3-.75,3.41-.75,4.71,0Z"/>
        <path class="cls-3" d="M364.92,401.72c1.3.75,1.3,1.97,0,2.72-1.3.75-3.41.75-4.71,0-1.3-.75-1.3-1.97,0-2.72s3.41-.75,4.71,0Z"/>
        <path class="cls-3" d="M377.24,394.6c1.3.75,1.3,1.97,0,2.72-1.3.75-3.41.75-4.71,0-1.3-.75-1.3-1.97,0-2.72,1.3-.75,3.41-.75,4.71,0Z"/>
        <path class="cls-3" d="M389.56,387.49c1.3.75,1.3,1.97,0,2.72-1.3.75-3.41.75-4.71,0-1.3-.75-1.3-1.97,0-2.72,1.3-.75,3.41-.75,4.71,0Z"/>
        <path class="cls-3" d="M401.88,380.37c1.3.75,1.3,1.97,0,2.72-1.3.75-3.41.75-4.71,0-1.3-.75-1.3-1.97,0-2.72,1.3-.75,3.41-.75,4.71,0Z"/>
        <path class="cls-3" d="M414.2,373.26c1.3.75,1.3,1.97,0,2.72-1.3.75-3.41.75-4.71,0-1.3-.75-1.3-1.97,0-2.72,1.3-.75,3.41-.75,4.71,0Z"/>
        <path class="cls-3" d="M426.52,366.15c1.3.75,1.3,1.97,0,2.72-1.3.75-3.41.75-4.71,0-1.3-.75-1.3-1.97,0-2.72,1.3-.75,3.41-.75,4.71,0Z"/>
        <path class="cls-3" d="M438.85,359.03c1.3.75,1.3,1.97,0,2.72-1.3.75-3.41.75-4.71,0-1.3-.75-1.3-1.97,0-2.72,1.3-.75,3.41-.75,4.71,0Z"/>
        <path class="cls-3" d="M451.17,351.92c1.3.75,1.3,1.97,0,2.72-1.3.75-3.41.75-4.71,0-1.3-.75-1.3-1.97,0-2.72,1.3-.75,3.41-.75,4.71,0Z"/>
        <path class="cls-3" d="M463.49,344.8c1.3.75,1.3,1.97,0,2.72-1.3.75-3.41.75-4.71,0-1.3-.75-1.3-1.97,0-2.72,1.3-.75,3.41-.75,4.71,0Z"/>
        <path class="cls-3" d="M340.27,401.72c1.3.75,1.3,1.97,0,2.72-1.3.75-3.41.75-4.71,0-1.3-.75-1.3-1.97,0-2.72,1.3-.75,3.41-.75,4.71,0Z"/>
        <path class="cls-3" d="M352.59,394.6c1.3.75,1.3,1.97,0,2.72-1.3.75-3.41.75-4.71,0-1.3-.75-1.3-1.97,0-2.72,1.3-.75,3.41-.75,4.71,0Z"/>
        <path class="cls-3" d="M364.92,387.49c1.3.75,1.3,1.97,0,2.72-1.3.75-3.41.75-4.71,0-1.3-.75-1.3-1.97,0-2.72,1.3-.75,3.41-.75,4.71,0Z"/>
        <path class="cls-3" d="M377.24,380.37c1.3.75,1.3,1.97,0,2.72-1.3.75-3.41.75-4.71,0-1.3-.75-1.3-1.97,0-2.72,1.3-.75,3.41-.75,4.71,0Z"/>
        <path class="cls-3" d="M389.56,373.26c1.3.75,1.3,1.97,0,2.72-1.3.75-3.41.75-4.71,0-1.3-.75-1.3-1.97,0-2.72,1.3-.75,3.41-.75,4.71,0Z"/>
        <path class="cls-3" d="M401.88,366.15c1.3.75,1.3,1.97,0,2.72-1.3.75-3.41.75-4.71,0-1.3-.75-1.3-1.97,0-2.72,1.3-.75,3.41-.75,4.71,0Z"/>
        <path class="cls-3" d="M414.2,359.03c1.3.75,1.3,1.97,0,2.72-1.3.75-3.41.75-4.71,0-1.3-.75-1.3-1.97,0-2.72,1.3-.75,3.41-.75,4.71,0Z"/>
        <path class="cls-3" d="M426.53,351.92c1.3.75,1.3,1.97,0,2.72-1.3.75-3.41.75-4.71,0-1.3-.75-1.3-1.97,0-2.72,1.3-.75,3.41-.75,4.71,0Z"/>
        <path class="cls-3" d="M438.85,344.8c1.3.75,1.3,1.97,0,2.72-1.3.75-3.41.75-4.71,0-1.3-.75-1.3-1.97,0-2.72,1.3-.75,3.41-.75,4.71,0Z"/>
        <path class="cls-3" d="M451.17,337.69c1.3.75,1.3,1.97,0,2.72-1.3.75-3.41.75-4.71,0-1.3-.75-1.3-1.97,0-2.72,1.3-.75,3.41-.75,4.71,0Z"/>
        <path class="cls-3" d="M463.49,330.58c1.3.75,1.3,1.97,0,2.72-1.3.75-3.41.75-4.71,0-1.3-.75-1.3-1.97,0-2.72,1.3-.75,3.41-.75,4.71,0Z"/>
        <path class="cls-3" d="M315.63,401.72c1.3.75,1.3,1.97,0,2.72-1.3.75-3.41.75-4.71,0-1.3-.75-1.3-1.97,0-2.72,1.3-.75,3.41-.75,4.71,0Z"/>
        <path class="cls-3" d="M327.95,394.6c1.3.75,1.3,1.97,0,2.72-1.3.75-3.41.75-4.71,0-1.3-.75-1.3-1.97,0-2.72,1.3-.75,3.41-.75,4.71,0Z"/>
        <path class="cls-3" d="M340.27,387.49c1.3.75,1.3,1.97,0,2.72-1.3.75-3.41.75-4.71,0-1.3-.75-1.3-1.97,0-2.72,1.3-.75,3.41-.75,4.71,0Z"/>
        <path class="cls-3" d="M352.59,380.37c1.3.75,1.3,1.97,0,2.72-1.3.75-3.41.75-4.71,0-1.3-.75-1.3-1.97,0-2.72,1.3-.75,3.41-.75,4.71,0Z"/>
        <path class="cls-3" d="M364.92,373.26c1.3.75,1.3,1.97,0,2.72-1.3.75-3.41.75-4.71,0-1.3-.75-1.3-1.97,0-2.72,1.3-.75,3.41-.75,4.71,0Z"/>
        <path class="cls-3" d="M377.24,366.15c1.3.75,1.3,1.97,0,2.72-1.3.75-3.41.75-4.71,0-1.3-.75-1.3-1.97,0-2.72,1.3-.75,3.41-.75,4.71,0Z"/>
        <path class="cls-3" d="M389.56,359.03c1.3.75,1.3,1.97,0,2.72-1.3.75-3.41.75-4.71,0-1.3-.75-1.3-1.97,0-2.72,1.3-.75,3.41-.75,4.71,0Z"/>
        <path class="cls-3" d="M401.88,351.92c1.3.75,1.3,1.97,0,2.72-1.3.75-3.41.75-4.71,0-1.3-.75-1.3-1.97,0-2.72,1.3-.75,3.41-.75,4.71,0Z"/>
        <path class="cls-3" d="M414.2,344.8c1.3.75,1.3,1.97,0,2.72-1.3.75-3.41.75-4.71,0-1.3-.75-1.3-1.97,0-2.72,1.3-.75,3.41-.75,4.71,0Z"/>
        <path class="cls-3" d="M426.53,337.69c1.3.75,1.3,1.97,0,2.72-1.3.75-3.41.75-4.71,0s-1.3-1.97,0-2.72c1.3-.75,3.41-.75,4.71,0Z"/>
        <path class="cls-3" d="M438.85,330.58c1.3.75,1.3,1.97,0,2.72-1.3.75-3.41.75-4.71,0-1.3-.75-1.3-1.97,0-2.72,1.3-.75,3.41-.75,4.71,0Z"/>
        <path class="cls-3" d="M451.17,323.46c1.3.75,1.3,1.97,0,2.72-1.3.75-3.41.75-4.71,0-1.3-.75-1.3-1.97,0-2.72,1.3-.75,3.41-.75,4.71,0Z"/>
        <path class="cls-3" d="M303.31,394.6c1.3.75,1.3,1.97,0,2.72-1.3.75-3.41.75-4.71,0-1.3-.75-1.3-1.97,0-2.72,1.3-.75,3.41-.75,4.71,0Z"/>
        <path class="cls-3" d="M315.63,387.49c1.3.75,1.3,1.97,0,2.72-1.3.75-3.41.75-4.71,0-1.3-.75-1.3-1.97,0-2.72,1.3-.75,3.41-.75,4.71,0Z"/>
        <path class="cls-3" d="M327.95,380.37c1.3.75,1.3,1.97,0,2.72-1.3.75-3.41.75-4.71,0-1.3-.75-1.3-1.97,0-2.72,1.3-.75,3.41-.75,4.71,0Z"/>
        <path class="cls-3" d="M290.88,387.41c1.3.75,1.3,1.97,0,2.72-1.3.75-3.41.75-4.71,0-1.3-.75-1.3-1.97,0-2.72,1.3-.75,3.41-.75,4.71,0Z"/>
        <path class="cls-3" d="M303.2,380.3c1.3.75,1.3,1.97,0,2.72-1.3.75-3.41.75-4.71,0-1.3-.75-1.3-1.97,0-2.72,1.3-.75,3.41-.75,4.71,0Z"/>
        <path class="cls-3" d="M315.52,373.18c1.3.75,1.3,1.97,0,2.72-1.3.75-3.41.75-4.71,0-1.3-.75-1.3-1.97,0-2.72,1.3-.75,3.41-.75,4.71,0Z"/>
        <path class="cls-3" d="M278.56,380.3c1.3.75,1.3,1.97,0,2.72-1.3.75-3.41.75-4.71,0s-1.3-1.97,0-2.72c1.3-.75,3.41-.75,4.71,0Z"/>
        <path class="cls-3" d="M290.88,373.18c1.3.75,1.3,1.97,0,2.72-1.3.75-3.41.75-4.71,0-1.3-.75-1.3-1.97,0-2.72,1.3-.75,3.41-.75,4.71,0Z"/>
        <path class="cls-3" d="M303.2,366.07c1.3.75,1.3,1.97,0,2.72-1.3.75-3.41.75-4.71,0-1.3-.75-1.3-1.97,0-2.72,1.3-.75,3.41-.75,4.71,0Z"/>
        <path class="cls-3" d="M266.23,373.18c1.3.75,1.3,1.97,0,2.72-1.3.75-3.41.75-4.71,0-1.3-.75-1.3-1.97,0-2.72,1.3-.75,3.41-.75,4.71,0Z"/>
        <path class="cls-3" d="M278.56,366.07c1.3.75,1.3,1.97,0,2.72-1.3.75-3.41.75-4.71,0-1.3-.75-1.3-1.97,0-2.72,1.3-.75,3.41-.75,4.71,0Z"/>
        <path class="cls-3" d="M290.88,358.96c1.3.75,1.3,1.97,0,2.72-1.3.75-3.41.75-4.71,0-1.3-.75-1.3-1.97,0-2.72,1.3-.75,3.41-.75,4.71,0Z"/>
        <path class="cls-3" d="M253.91,366.07c1.3.75,1.3,1.97,0,2.72-1.3.75-3.41.75-4.71,0-1.3-.75-1.3-1.97,0-2.72,1.3-.75,3.41-.75,4.71,0Z"/>
        <path class="cls-3" d="M266.23,358.96c1.3.75,1.3,1.97,0,2.72-1.3.75-3.41.75-4.71,0-1.3-.75-1.3-1.97,0-2.72,1.3-.75,3.41-.75,4.71,0Z"/>
        <path class="cls-3" d="M278.56,351.84c1.3.75,1.3,1.97,0,2.72-1.3.75-3.41.75-4.71,0-1.3-.75-1.3-1.97,0-2.72,1.3-.75,3.41-.75,4.71,0Z"/>
      </g>
      <g>
        <g>
          <g>
            <polygon class="cls-4" points="40.68 330.32 40.66 324.57 369.29 323.81 369.29 29.34 376.39 29.34 376.39 329.54 40.68 330.32"/>
            <polygon class="cls-5" points="35.08 325.87 35.06 320.13 363.68 319.37 363.68 24.9 370.79 24.9 370.79 325.1 35.08 325.87"/>
          </g>
          <g>
            <g>
              <g>
                <path class="cls-5" d="M401.59,25.53h0l-2.27-9.44h-5.43c-5.9-3.84-14.5-6.27-24.1-6.27s-18.2,2.43-24.1,6.27h-5.22l-2.48,9.32h.04c-.27.97-.45,1.96-.45,2.97,0,10.25,14.43,18.56,32.22,18.56s32.22-8.31,32.22-18.56c0-.97-.17-1.92-.42-2.85Z"/>
                <path class="cls-2" d="M401.73,25.82h0l-2.27-9.44h-5.43c-5.9-3.84-14.5-6.27-24.1-6.27-2.13,0-4.2.14-6.21.37-5.48,1.04-10.32,2.9-14.07,5.34h-2.86c-.32.19-.66.37-.96.57h-1.54l-2.33,8.75h.04c-.27.97-.45,1.96-.45,2.97,0,10.25,14.43,18.56,32.22,18.56,2.09,0,4.12-.12,6.1-.34,12.93-2.41,22.29-9.4,22.29-17.66,0-.97-.17-1.92-.42-2.85Z"/>
                <path class="cls-4" d="M369.79,48.12c-18.41,0-33.39-8.85-33.39-19.74,0-.58.05-1.17.16-1.8h-.06l.36-1.47,2.72-10.19h5.78c6.3-3.99,15.18-6.27,24.44-6.27s18.14,2.28,24.44,6.27h6.01l2.49,10.34h0c.31,1.16.45,2.15.45,3.12,0,10.88-14.98,19.74-33.39,19.74ZM339.51,24.24h.02l-.38,1.49c-.27.98-.41,1.85-.41,2.65,0,9.59,13.93,17.39,31.05,17.39s31.05-7.8,31.05-17.39c0-.77-.12-1.58-.38-2.55v-.03s-2.06-8.55-2.06-8.55h-4.85l-.29-.19c-5.95-3.87-14.5-6.08-23.46-6.08s-17.52,2.22-23.46,6.08l-.29.19h-4.67l-1.86,6.98Z"/>
              </g>
              <g>
                <path class="cls-2" d="M399.55,18.26c0,9.44-13.28,17.09-29.67,17.09s-29.67-7.65-29.67-17.09,13.28-17.09,29.67-17.09,29.67,7.65,29.67,17.09Z"/>
                <path class="cls-5" d="M399.86,18.26c0-3.24-1.59-6.25-4.3-8.83-5.43-3.49-13.29-5.7-22.07-5.7-16.38,0-29.67,7.65-29.67,17.09,0,3.24,1.59,6.25,4.3,8.83,5.43,3.49,13.29,5.7,22.07,5.7,16.38,0,29.67-7.65,29.67-17.09Z"/>
                <path class="cls-4" d="M369.89,36.53c-17,0-30.84-8.19-30.84-18.27S352.89,0,369.89,0s30.84,8.19,30.84,18.26-13.83,18.27-30.84,18.27ZM369.89,2.34c-15.71,0-28.49,7.14-28.49,15.92s12.78,15.92,28.49,15.92,28.49-7.14,28.49-15.92-12.78-15.92-28.49-15.92Z"/>
              </g>
              <g>
                <path class="cls-1" d="M384.88,17.26c0,4.42-6.75,8.01-15.09,8.01s-15.09-3.59-15.09-8.01,6.76-8.01,15.09-8.01,15.09,3.59,15.09,8.01Z"/>
                <path class="cls-2" d="M369.94,9.25c-1.97,0-3.85.21-5.57.57-3.47,1.47-5.71,3.73-5.71,6.27,0,4.42,6.76,8.01,15.09,8.01,1.97,0,3.85-.21,5.57-.57,3.47-1.47,5.71-3.73,5.71-6.27,0-4.42-6.75-8.01-15.09-8.01Z"/>
                <path class="cls-4" d="M369.79,26.45c-9.12,0-16.26-4.04-16.26-9.18s7.14-9.18,16.26-9.18,16.26,4.03,16.26,9.18-7.14,9.18-16.26,9.18ZM369.79,10.42c-7.54,0-13.92,3.13-13.92,6.84s6.37,6.84,13.92,6.84,13.92-3.13,13.92-6.84-6.37-6.84-13.92-6.84Z"/>
              </g>
              <g>
                <path class="cls-4" d="M369.89,14.44c6.54,0,12.09,2.21,14.18,5.3.51-.81.8-1.66.8-2.56,0-4.42-6.76-8.01-15.09-8.01s-15.09,3.59-15.09,8.01c0,.95.33,1.86.9,2.71,2.01-3.17,7.64-5.45,14.29-5.45Z"/>
                <path class="cls-4" d="M356.59,20.52l-1.96.03c-.73-1.08-1.11-2.22-1.11-3.37,0-5.15,7.14-9.18,16.26-9.18s16.26,4.03,16.26,9.18c0,1.09-.33,2.16-.99,3.19l-3.13,1.5,1.17-1.48c-1.94-2.86-7.25-4.79-13.21-4.79s-11.46,2.02-13.3,4.91h0ZM369.79,10.34c-7.54,0-13.92,3.13-13.92,6.84,0,.17.02.35.05.53,2.87-2.71,8.16-4.44,13.97-4.44s10.9,1.63,13.8,4.27c.01-.12.02-.24.02-.36,0-3.71-6.37-6.84-13.92-6.84Z"/>
              </g>
            </g>
            <polygon class="cls-4" points="363.38 35.36 362.75 46.38 376.22 46.38 388.23 43.3 394.7 40.52 400.73 35.36 402.15 28.67 400.23 19.89 396.94 25.28 392.33 29.1 382.45 33.75 369.89 35.36 363.38 35.36"/>
            <polygon class="cls-4" points="341.39 23 339.05 33.97 337.57 27.19 339.55 19.55 341.39 23"/>
          </g>
          <g>
            <g>
              <g>
                <path class="cls-5" d="M65.19,318.99h0l-2.27-9.44h-5.43c-5.9-3.84-14.5-6.27-24.1-6.27s-18.2,2.43-24.1,6.27h-5.22l-2.48,9.32h.04c-.27.97-.45,1.96-.45,2.97,0,10.25,14.43,18.56,32.22,18.56s32.22-8.31,32.22-18.56c0-.97-.17-1.92-.42-2.85Z"/>
                <path class="cls-2" d="M65.33,319.27h0l-2.27-9.44h-5.43c-5.9-3.84-14.5-6.27-24.1-6.27-2.13,0-4.2.14-6.21.37-5.48,1.04-10.32,2.9-14.07,5.34h-2.86c-.32.19-.66.37-.96.57h-1.54l-2.33,8.75h.04c-.27.97-.45,1.96-.45,2.97,0,10.25,14.43,18.56,32.22,18.56,2.09,0,4.12-.12,6.1-.34,12.93-2.41,22.29-9.4,22.29-17.66,0-.97-.17-1.92-.42-2.85Z"/>
                <path class="cls-4" d="M33.39,341.58c-18.41,0-33.39-8.85-33.39-19.74,0-.58.05-1.17.16-1.8h-.06l.36-1.47,2.72-10.19h5.78c6.3-3.99,15.18-6.27,24.44-6.27s18.14,2.28,24.44,6.27h6.01l2.49,10.34h0c.31,1.16.45,2.15.45,3.12,0,10.88-14.98,19.74-33.39,19.74ZM3.11,317.7h.02l-.38,1.49c-.27.98-.41,1.85-.41,2.65,0,9.59,13.93,17.39,31.05,17.39s31.05-7.8,31.05-17.39c0-.77-.12-1.58-.38-2.55v-.03s-2.06-8.55-2.06-8.55h-4.85l-.29-.19c-5.95-3.87-14.5-6.08-23.46-6.08s-17.52,2.22-23.46,6.08l-.29.19h-4.67l-1.86,6.98Z"/>
              </g>
              <g>
                <path class="cls-2" d="M63.16,311.72c0,9.44-13.28,17.09-29.67,17.09s-29.67-7.65-29.67-17.09,13.28-17.09,29.67-17.09,29.67,7.65,29.67,17.09Z"/>
                <path class="cls-5" d="M63.46,311.72c0-3.24-1.59-6.25-4.3-8.83-5.43-3.49-13.29-5.7-22.07-5.7-16.38,0-29.67,7.65-29.67,17.09,0,3.24,1.59,6.25,4.3,8.83,5.43,3.49,13.29,5.7,22.07,5.7,16.38,0,29.67-7.65,29.67-17.09Z"/>
                <path class="cls-4" d="M33.5,329.98c-17,0-30.84-8.19-30.84-18.27s13.83-18.26,30.84-18.26,30.84,8.19,30.84,18.26-13.83,18.27-30.84,18.27ZM33.5,295.8c-15.71,0-28.49,7.14-28.49,15.92s12.78,15.92,28.49,15.92,28.49-7.14,28.49-15.92-12.78-15.92-28.49-15.92Z"/>
              </g>
              <g>
                <path class="cls-1" d="M48.48,310.72c0,4.42-6.75,8.01-15.09,8.01s-15.09-3.59-15.09-8.01,6.76-8.01,15.09-8.01,15.09,3.59,15.09,8.01Z"/>
                <path class="cls-2" d="M33.54,302.71c-1.97,0-3.85.21-5.57.57-3.47,1.47-5.71,3.73-5.71,6.27,0,4.42,6.76,8.01,15.09,8.01,1.97,0,3.85-.21,5.57-.57,3.47-1.47,5.71-3.73,5.71-6.27,0-4.42-6.75-8.01-15.09-8.01Z"/>
                <path class="cls-4" d="M33.39,319.91c-9.12,0-16.26-4.04-16.26-9.18s7.14-9.18,16.26-9.18,16.26,4.03,16.26,9.18-7.14,9.18-16.26,9.18ZM33.39,303.88c-7.54,0-13.92,3.13-13.92,6.84s6.37,6.84,13.92,6.84,13.92-3.13,13.92-6.84-6.37-6.84-13.92-6.84Z"/>
              </g>
              <g>
                <path class="cls-4" d="M33.49,307.89c6.54,0,12.09,2.21,14.18,5.3.51-.81.8-1.66.8-2.56,0-4.42-6.76-8.01-15.09-8.01s-15.09,3.59-15.09,8.01c0,.95.33,1.86.9,2.71,2.01-3.17,7.64-5.45,14.29-5.45Z"/>
                <path class="cls-4" d="M20.2,313.97l-1.96.03c-.73-1.08-1.11-2.22-1.11-3.37,0-5.15,7.14-9.18,16.26-9.18s16.26,4.03,16.26,9.18c0,1.09-.33,2.16-.99,3.19l-3.13,1.5,1.17-1.48c-1.94-2.86-7.25-4.79-13.21-4.79s-11.46,2.02-13.3,4.91h0ZM33.39,303.79c-7.54,0-13.92,3.13-13.92,6.84,0,.17.02.35.05.53,2.87-2.71,8.16-4.44,13.97-4.44s10.9,1.63,13.8,4.27c.01-.12.02-.24.02-.36,0-3.71-6.37-6.84-13.92-6.84Z"/>
              </g>
            </g>
            <polygon class="cls-4" points="26.99 328.81 26.35 339.84 39.83 339.84 51.84 336.76 58.31 333.98 64.33 328.81 65.75 322.12 63.84 313.34 60.55 318.73 55.94 322.55 46.05 327.21 33.49 328.81 26.99 328.81"/>
            <polygon class="cls-4" points="5 316.46 2.66 327.42 1.17 320.65 3.15 313 5 316.46"/>
          </g>
        </g>
        <g>
          <g>
            <polygon class="cls-2" points="237.61 213.22 197.57 152.23 298.27 94.06 338.35 155.06 237.61 213.22"/>
            <polygon class="cls-5" points="235.51 224.84 195.47 163.85 296.17 105.68 336.25 166.68 235.51 224.84"/>
            <path class="cls-4" d="M237.39,214.13l-40.79-62.13,101.88-58.85,40.83,62.13-101.92,58.84ZM198.53,152.46l39.3,59.86,99.57-57.49-39.34-59.86-99.53,57.49Z"/>
          </g>
          <g>
            <polygon class="cls-2" points="439.59 213.56 479.63 152.57 378.92 94.4 338.84 155.4 439.59 213.56"/>
            <polygon class="cls-5" points="441.57 224.84 481.61 163.85 380.9 105.68 340.82 166.68 441.57 224.84"/>
            <path class="cls-4" d="M439.8,214.47l-101.92-58.84,40.83-62.13,101.88,58.84-.4.6-40.39,61.53ZM339.8,155.17l99.57,57.49,39.29-59.86-99.53-57.49-39.33,59.86Z"/>
          </g>
          <g>
            <polygon class="cls-2" points="238.12 213.56 238.12 321.23 338.86 379.39 338.86 271.73 238.12 213.56"/>
            <path class="cls-4" d="M338.86,270.94l-101.42-58.56v109.23l101.42,58.56,101.08-58.36.34-.19v-109.23l-101.42,58.56ZM238.79,320.84v-106.1l99.39,57.38v106.1l-99.39-57.38Z"/>
          </g>
          <g>
            <polygon class="cls-2" points="439.61 213.56 338.86 271.73 238.12 213.56 338.86 155.4 439.61 213.56"/>
            <path class="cls-4" d="M338.86,272.53l-102.13-58.96,102.13-58.97.35.2,101.78,58.77-102.13,58.96ZM239.5,213.56l99.36,57.36,99.36-57.36-99.36-57.37-99.36,57.37Z"/>
          </g>
          <path class="cls-5" d="M360.38,352.43v-19.08l-9.51,5.49,16.85-36.91,16.85,17.46-8.98,5.18v19.08l-15.2,8.78ZM362.15,330.29v19.08l11.67-6.74v-19.08l7.91-4.57-13.48-13.97-13.48,29.54,7.38-4.26Z"/>
          <polygon class="cls-4" points="338.84 155.4 236.74 213.56 338.52 272.31 339.59 271.75 338.84 272.43 338.84 155.4"/>
          <g>
            <polygon class="cls-2" points="338.84 271.73 272.08 273.95 169.37 215.7 238.1 213.56 338.84 271.73"/>
            <polygon class="cls-5" points="338.18 280.88 271.42 283.1 168.71 224.85 237.44 222.71 338.18 280.88"/>
            <path class="cls-4" d="M271.91,274.63l-.17-.1-104.82-59.44,71.34-2.22.17.1,102.8,59.35-69.32,2.31ZM171.8,216.3l100.44,56.96,64.2-2.14-98.52-56.88-66.12,2.05Z"/>
          </g>
          <polygon class="cls-5" points="423.58 331.26 421.82 332.28 421.82 273.53 423.58 272.53 423.58 331.26"/>
          <g>
            <polygon class="cls-2" points="338.86 271.73 405.62 273.95 508.34 215.7 439.61 213.56 338.86 271.73"/>
            <polygon class="cls-5" points="338.18 280.88 404.94 283.1 507.66 224.85 438.93 222.71 338.18 280.88"/>
            <path class="cls-4" d="M405.79,274.63h-.19s-69.13-2.31-69.13-2.31l102.97-59.45h.19s71.15,2.22,71.15,2.22l-104.98,59.54ZM341.25,271.13l64.2,2.14,100.44-56.96-66.12-2.05-98.52,56.88Z"/>
          </g>
          <g>
            <polygon class="cls-2" points="285.08 241.11 338.29 211.06 389.93 241.41 338.29 271.83 285.08 241.11"/>
            <polygon class="cls-5" points="292.36 245.22 340.89 217.85 385.25 243.7 338.29 271.43 292.36 245.22"/>
            <path class="cls-4" d="M338.29,272.73l-.39-.22-53.61-31.84,54-30.5.38.22,52.78,31.02-53.17,31.32ZM286.65,241.12l51.64,29.82,50.11-29.52-50.12-29.46-51.63,29.16Z"/>
          </g>
        </g>
      </g>
    </g>
  </g>
</svg>