<?xml version="1.0" encoding="UTF-8"?>
<svg id="Layer_2" data-name="Layer 2" xmlns="http://www.w3.org/2000/svg" xmlns:xlink="http://www.w3.org/1999/xlink" viewBox="0 0 233.58 260.62">
  <defs>
    <style>
      .cls-1 {
        filter: url(#drop-shadow-1);
      }

      .cls-2 {
        fill: #006a7a;
      }
    </style>
    <filter id="drop-shadow-1" x="-8.24" y="-8.38" width="264" height="291" filterUnits="userSpaceOnUse">
      <feOffset dx="7" dy="7"/>
      <feGaussianBlur result="blur" stdDeviation="5"/>
      <feFlood flood-color="#231f20" flood-opacity=".75"/>
      <feComposite in2="blur" operator="in"/>
      <feComposite in="SourceGraphic"/>
    </filter>
  </defs>
  <g id="Web">
    <g class="cls-1">
      <path class="cls-2" d="M137.97,121.26c0,.18-1.06,1.9-1.36,2.15-1.56,1.29-4.03,1.27-5.52-.12-.21-.2-1.21-1.91-1.21-2.03v-4.99h-8.09v24.26h24.26v-24.26h-8.09v4.99Z"/>
      <path class="cls-2" d="M105.63,121.26c0,.18-1.06,1.9-1.36,2.15-1.56,1.29-4.03,1.27-5.52-.12-.21-.2-1.21-1.91-1.21-2.03v-4.99h-8.09v24.26h24.26v-24.26h-8.09v4.99Z"/>
      <path class="cls-2" d="M105.63,83.93v24.26h24.26v-24.26h-8.09v4.99c0,.18-1.06,1.9-1.36,2.15-1.56,1.29-4.03,1.27-5.52-.12-.21-.2-1.21-1.91-1.21-2.03v-4.99h-8.09Z"/>
      <path class="cls-2" d="M73.28,140.53h8.09v-29.24c0-.12,1-1.83,1.21-2.03.17-.15,1.78-1.07,1.89-1.07h13.07v-29.24c0-.12,1-1.83,1.21-2.03.61-.57,1.86-1,2.69-1.08,10.36-1.02,22.37.8,32.9,0,.66.08,1.96.64,2.43,1.08.21.2,1.21,1.91,1.21,2.03v29.24h13.07c.12,0,1.83,1,2.03,1.21.15.17,1.07,1.78,1.07,1.89v29.24h8.09V62.37h-88.95v78.16Z"/>
      <path class="cls-2" d="M56.84,49.97v90.56h8.36V57.38c0-.12,1-1.83,1.21-2.03.47-.43,1.77-1,2.43-1.08l98.53.13c1.03.13,2.96,2.08,2.96,2.97v83.15h8.36V50.11l-60.82-30.8-61,30.67ZM124.03,43.44c-1.48.3-11.07.3-12.55,0-4.15-.84-4.17-7.12,0-7.96,1.48-.3,11.07-.3,12.55,0,4.17.85,4.16,7.12,0,7.96Z"/>
      <path class="cls-2" d="M221.79,0H11.79C5.28,0,0,5.28,0,11.79v237.04c0,6.51,5.28,11.79,11.79,11.79h210c6.51,0,11.79-5.28,11.79-11.79V11.79c0-6.51-5.28-11.79-11.79-11.79ZM186.76,145.65c-.8,1.54-1.42,2.16-2.96,2.96H51.72c-1.54-.8-2.16-1.42-2.96-2.96V46.47c.65-1.29,1.32-2.23,2.69-2.83L116.68,10.62h2.16l65.23,33.01c1.47.59,1.91,1.6,2.69,2.83v99.19Z"/>
    </g>
  </g>
</svg>