<?xml version="1.0" encoding="UTF-8"?>
<svg id="Layer_2" data-name="Layer 2" xmlns="http://www.w3.org/2000/svg" xmlns:xlink="http://www.w3.org/1999/xlink" viewBox="0 0 233.58 260.62">
  <defs>
    <style>
      .cls-1 {
        filter: url(#drop-shadow-1);
      }

      .cls-2 {
        fill: #007972;
      }
    </style>
    <filter id="drop-shadow-1" x="-8.19" y="-8.38" width="264" height="291" filterUnits="userSpaceOnUse">
      <feOffset dx="7" dy="7"/>
      <feGaussianBlur result="blur" stdDeviation="5"/>
      <feFlood flood-color="#231f20" flood-opacity=".75"/>
      <feComposite in2="blur" operator="in"/>
      <feComposite in="SourceGraphic"/>
    </filter>
  </defs>
  <g id="Web">
    <g class="cls-1">
      <path class="cls-2" d="M140.08,55.69c6.3,6.31,15.87-3.27,9.72-9.6-6.2-6.38-16.11,3.2-9.72,9.6Z"/>
      <path class="cls-2" d="M160.69,28.79c-12.08-.3-24.68-2.62-36.68-2.86-.63-.01-1.19-.01-1.83.06-1.47.18-2.75.86-3.86,1.82l-52.92,52.94c-2.13,2.69-2.17,5.91-.12,8.66l41.08,41.1c2.67,2.06,5.85,2.03,8.54,0l53.04-53.06c1.05-1.13,1.6-2.56,1.86-4.06l-2.84-38.32c-.57-3.49-2.78-5.7-6.27-6.28ZM155.24,60.96c-13.41,13.65-33.99-6.75-20.61-20.26,13.38-13.51,33.84,6.79,20.61,20.26Z"/>
      <path class="cls-2" d="M221.79,0H11.79C5.28,0,0,5.28,0,11.79v237.04c0,6.51,5.28,11.79,11.79,11.79h210c6.51,0,11.79-5.28,11.79-11.79V11.79c0-6.51-5.28-11.79-11.79-11.79ZM175.32,80.33c-18.39,19.49-37.56,38.46-56.89,57.02-1.76.96-3.88,2.05-5.9,2.27h-3.79c-3.31-.64-6.09-2.06-8.53-4.38-12.38-13.58-27.43-25.87-39.55-39.55-2.28-2.57-3.91-5.19-4.49-8.65.09-1.22-.13-2.6,0-3.79.21-1.93,1.22-3.9,2.09-5.61,18.44-19.52,37.61-38.57,57.03-57.11,2.91-1.79,6.02-2.43,9.44-2.18,12.04,1.64,24.95,1.18,36.9,2.88,6.85.97,11.93,6.05,12.9,12.91,1.69,11.87,1.21,24.73,2.87,36.69.23,3.41-.3,6.59-2.08,9.52Z"/>
    </g>
  </g>
</svg>