<?xml version="1.0" encoding="UTF-8"?>
<svg id="Layer_2" data-name="Layer 2" xmlns="http://www.w3.org/2000/svg" xmlns:xlink="http://www.w3.org/1999/xlink" viewBox="0 0 233.58 260.62">
  <defs>
    <style>
      .cls-1 {
        filter: url(#drop-shadow-1);
      }

      .cls-2 {
        fill: #007972;
      }
    </style>
    <filter id="drop-shadow-1" x="-8.23" y="-8.38" width="264" height="291" filterUnits="userSpaceOnUse">
      <feOffset dx="7" dy="7"/>
      <feGaussianBlur result="blur" stdDeviation="5"/>
      <feFlood flood-color="#231f20" flood-opacity=".75"/>
      <feComposite in2="blur" operator="in"/>
      <feComposite in="SourceGraphic"/>
    </filter>
  </defs>
  <g id="Web">
    <g class="cls-1">
      <rect class="cls-2" x="86.33" y="77.33" width="3.89" height="6.18"/>
      <path class="cls-2" d="M127.64,44.41c0,1.65-2.08,2.87-3.15,3.04-2.49.39-9.66.27-12.13.04-1.47-.13-3.79-1.09-3.79-3.09v-10.69h-16.51v36.02h52.09v-36.02h-16.51v10.69Z"/>
      <path class="cls-2" d="M138.42,88.03v-10.69h-16.51v36.02h52.09v-36.02h-16.51v10.69c0,1.65-2.08,2.88-3.15,3.04-2.48.38-9.66.26-12.13.04-1.47-.13-3.79-1.09-3.79-3.09Z"/>
      <path class="cls-2" d="M97.8,88.03c0,1.65-2.08,2.88-3.15,3.04-2.48.38-9.66.26-12.13.04-1.47-.13-3.79-1.09-3.79-3.09v-10.69h-16.51v36.02h52.09v-36.02h-16.51v10.69Z"/>
      <rect class="cls-2" x="116.17" y="33.72" width="3.89" height="6.18"/>
      <rect class="cls-2" x="146.01" y="77.33" width="3.89" height="6.18"/>
      <rect class="cls-2" x="167.82" y="132.42" width="15.36" height="3.89"/>
      <path class="cls-2" d="M221.79,0H11.79C5.28,0,0,5.28,0,11.79v237.04c0,6.51,5.28,11.79,11.79,11.79h210c6.51,0,11.79-5.28,11.79-11.79V11.79c0-6.51-5.28-11.79-11.79-11.79ZM193.07,129.93l-.24.37c-.67,1.04-1.42,1.53-2.15,1.86-.01.75.03,1.74.08,2.78.17,3.79.21,6.19-.71,7.48-.39.55-.94.97-1.63,1.25l-.37.11-24.09.13c-.87.14-1.78-.39-2.38-.86-.51-.4-1.36-1.23-1.36-2.23v-8.4h-26.84v8.4c0,1-.85,1.82-1.36,2.23-.61.48-1.53,1-2.5.84-3.4-.23-7.14-.09-10.76.05-2.27.09-4.57.18-6.84.18-1.79,0-3.57-.06-5.29-.21-1.47-.13-3.79-1.09-3.79-3.09v-8.4h-26.84v8.4c0,1-.85,1.82-1.36,2.23-.61.48-1.53,1.01-2.5.84-3.4-.23-7.16-.09-10.79.05-2.25.09-4.56.17-6.82.17-1.99,0-3.73-.07-5.29-.21-1.47-.13-3.46-.64-3.79-3.48-.19-1.63-.1-3.4-.02-5.11.05-1.07.1-2.17.08-3.18-1.71-.69-2.23-2.09-2.36-3.19-.26-2.26-.34-10.06.03-12.44.17-1.07,1.39-3.15,3.04-3.15h8.4v-38.53c0-2,3.09-5.09,5.09-5.09h24.75V31.21c0-1.51,1.33-2.88,1.9-3.39.62-.56,2.23-1.86,3.91-1.69l56.54.12c2.09.15,4.92,3.03,4.92,4.96v38.53h24.75c2,0,5.09,3.09,5.09,5.09v38.53h8.4c.98,0,1.72.78,2.59,1.81l.49.57v14.2Z"/>
      <rect class="cls-2" x="50.75" y="120.94" width="134.73" height="3.89"/>
      <rect class="cls-2" x="53.04" y="132.42" width="15.36" height="3.89"/>
      <rect class="cls-2" x="110.43" y="132.42" width="15.36" height="3.89"/>
    </g>
  </g>
</svg>