<?xml version="1.0" encoding="UTF-8"?>
<svg id="Layer_2" data-name="Layer 2" xmlns="http://www.w3.org/2000/svg" xmlns:xlink="http://www.w3.org/1999/xlink" viewBox="0 0 233.58 260.62">
  <defs>
    <style>
      .cls-1 {
        filter: url(#drop-shadow-1);
      }

      .cls-2 {
        fill: #006a7a;
      }
    </style>
    <filter id="drop-shadow-1" x="-8.17" y="-8.38" width="264" height="291" filterUnits="userSpaceOnUse">
      <feOffset dx="7" dy="7"/>
      <feGaussianBlur result="blur" stdDeviation="5"/>
      <feFlood flood-color="#231f20" flood-opacity=".75"/>
      <feComposite in2="blur" operator="in"/>
      <feComposite in="SourceGraphic"/>
    </filter>
  </defs>
  <g id="Web">
    <g class="cls-1">
      <path class="cls-2" d="M102.09,66.57c5.62,2.57,12.25,4.15,17.96,6.68,5.81-2.37,12.51-4.09,18.17-6.68.24-.11.56-.16.59-.49l-18.75-6.94-18.55,6.94c.03.33.35.38.59.49Z"/>
      <polygon class="cls-2" points="123.74 104.81 145.98 96.56 145.98 71.58 123.74 79.71 123.74 104.81"/>
      <polygon class="cls-2" points="116.57 79.71 94.33 71.58 94.33 96.56 116.57 104.81 116.57 79.71"/>
      <path class="cls-2" d="M221.79,0H11.79C5.28,0,0,5.28,0,11.79v237.04c0,6.51,5.28,11.79,11.79,11.79h210c6.51,0,11.79-5.28,11.79-11.79V11.79c0-6.51-5.28-11.79-11.79-11.79ZM164.86,119.04c-31.4,37.18-92.56,21.31-102.26-26.13-.63-3.08-1.6-9.12-1.27-12.12.2-1.78,1.37-3.28,3.23-3.47,5.22-.53,4.08,5.56,4.43,8.97,3.88,38.44,48.28,59.07,80.28,37,27.71-19.11,29.93-58.81,4.72-81.11-19.7-17.43-50.92-16.9-69.46,1.91h13.99c.09,0,1.24.41,1.4.51,2.88,1.63,2.28,6.11-.98,6.85l-23.38.06c-2.1-.43-3.05-1.89-3.23-3.94-.61-7.1.39-15.18.11-22.38.64-3.19,4.88-4.21,6.7-1.41.12.19.61,1.21.61,1.3v13.27c8.14-7.72,18.51-13.19,29.61-15.23,54.25-9.97,91.25,53.6,55.51,95.93ZM87.14,65.95c-.05-1.36.88-2.17,1.84-2.95,10.43-3.83,20.72-8.09,31.28-11.52,10.68,3.78,21.46,7.61,31.85,12.05.42.68.98,1.35,1.04,2.19v33.73c-.12,1.46-.53,2.25-1.79,2.99l-30.01,11.36-1.57.13c-9.54-3.75-19.95-6.76-29.34-10.83-1.97-.86-3.08-1.2-3.3-3.64-.94-10.66.73-22.69,0-33.5Z"/>
    </g>
  </g>
</svg>