<?xml version="1.0" encoding="UTF-8"?>
<svg id="Layer_2" data-name="Layer 2" xmlns="http://www.w3.org/2000/svg" viewBox="0 0 128.77 47.21">
  <defs>
    <style>
      .cls-1 {
        fill: #fff;
      }

      .cls-2 {
        fill: #0f9855;
      }
    </style>
  </defs>
  <g id="Web">
    <g>
      <g>
        <path class="cls-1" d="M54.61,20.09c-.61.18-1.43.27-2.59.27-5.07,0-5.65-3.63-5.65-5.05,0-3.92,1.54-6.6,3.55-8.24,1.62-1.33,3.72-1.91,5.76-1.91.96,0,2.01.2,2.23.33l-1.13,2.86c-.36-.13-.83-.22-1.65-.22s-1.82.47-2.51,1.2c-1.07,1.15-1.9,2.95-1.9,5.3,0,1.68.61,2.79,2.23,2.79.63,0,1.4-.09,1.87-.22l-.22,2.9Z"/>
        <path class="cls-1" d="M67.86,13.08c0,3.7-2.51,7.31-6.61,7.31-3.8,0-4.52-2.33-4.52-3.79,0-3.99,2.75-7.47,6.88-7.47,3.72,0,4.24,2.39,4.24,3.94ZM60.72,16.5c0,.6.03,1.44.94,1.44,1.32,0,2.2-3.3,2.2-5.3,0-.55-.22-1.04-.91-1.04-1.18,0-2.26,3.12-2.23,4.9Z"/>
        <path class="cls-1" d="M68.19,20.22l1.76-7.42c.28-1.15.5-2.37.72-3.48h3.47c-.05.58-.11,1.15-.19,1.73h.11c1.05-1.4,2.29-1.91,3.33-1.91.25,0,.44.02.63.07l-.77,3.26c-.14-.02-.47-.04-.69-.04-1.38,0-2.75,1.13-3.19,3.06l-1.1,4.74h-4.08Z"/>
        <path class="cls-1" d="M86.58,19.78c-1.29.4-2.51.58-4.21.58-3.55,0-4.96-1.77-4.96-4.19,0-3.26,2.23-7.02,6.75-7.02,2.7,0,3.91,1.6,3.94,3.19,0,3.12-3,4.23-6.8,4.1,0,.31.08.6.41.86.33.27.91.53,1.79.53,1.18,0,1.98-.2,2.89-.53l.19,2.48ZM83.66,11.76c-.99,0-1.79,1.02-2.01,2.26,1.68.09,2.89-.49,2.89-1.35,0-.58-.28-.91-.88-.91Z"/>
        <path class="cls-2" d="M99.91,20.22l.8-4.7c.19-1.2.58-2.99,1.07-5.12h-.11c-.85,2.13-1.76,3.97-2.26,4.9l-2.37,4.61h-2.97l-.16-4.61c-.03-.91-.14-2.77-.06-4.9h-.06c-.5,2.13-.99,3.92-1.35,5.12l-1.4,4.7h-3.47l4.76-14.94h4.3l.19,6.43c.03,1.09.08,2.84.03,3.86h.06c.3-1.02,1.07-2.75,1.6-3.86l3.08-6.43h4.24l-2.4,14.94h-3.53Z"/>
        <path class="cls-2" d="M115.3,19.78c-1.29.4-2.51.58-4.21.58-3.55,0-4.96-1.77-4.96-4.19,0-3.26,2.23-7.02,6.75-7.02,2.7,0,3.91,1.6,3.94,3.19,0,3.12-3,4.23-6.8,4.1,0,.31.08.6.41.86.33.27.91.53,1.79.53,1.18,0,1.98-.2,2.89-.53l.19,2.48ZM112.39,11.76c-.99,0-1.79,1.02-2.01,2.26,1.68.09,2.89-.49,2.89-1.35,0-.58-.28-.91-.88-.91Z"/>
        <path class="cls-2" d="M122.19,9.32l.28,1.82c.14.95.11,1.44.11,1.82h.08c.17-.38.47-1,.83-1.62l1.16-2.02h4.13l-4.41,5.47,1.76,5.43h-4.19l-.33-1.68c-.17-.84-.19-1.15-.22-1.91h-.06c-.16.35-.33.78-.83,1.66l-1.1,1.93h-4.13l4.41-5.52-1.71-5.38h4.21Z"/>
        <path class="cls-1" d="M50.04,25.8h-3.19l.74-3.1h10.44l-.74,3.1h-3.17l-2.84,11.83h-4.08l2.84-11.83Z"/>
        <path class="cls-1" d="M55.22,37.63l1.76-7.42c.28-1.15.5-2.37.72-3.48h3.47c-.05.58-.11,1.15-.19,1.73h.11c1.05-1.4,2.29-1.91,3.33-1.91.25,0,.44.02.63.07l-.77,3.26c-.14-.02-.47-.04-.69-.04-1.38,0-2.75,1.13-3.19,3.06l-1.1,4.74h-4.08Z"/>
        <path class="cls-1" d="M70.89,37.63c.03-.58.06-1.15.08-1.73h-.11c-.96,1.29-2.31,1.91-3.41,1.91-2.15,0-3.11-1.46-3.11-3.35,0-3.3,1.98-7.91,8.04-7.91,1.54,0,3.06.22,4.02.49l-1.49,6.01c-.3,1.17-.55,3.41-.55,4.59h-3.47ZM71.93,29.01c-.28-.04-.52-.07-.66-.07-1.96,0-2.97,3.5-2.97,4.76,0,.78.11,1.42.94,1.42.74,0,1.4-.84,1.87-2.75l.83-3.37Z"/>
        <path class="cls-1" d="M89.75,22.3l-2.81,11.86c-.28,1.15-.5,2.33-.69,3.48h-3.3l.17-1.55h-.06c-.85,1.11-2.15,1.73-3.25,1.73-2.07,0-3.19-1.4-3.19-3.46,0-3.86,2.59-7.8,6.86-7.8.47,0,.85.09,1.16.2l1.05-4.45h4.08ZM84.13,29.17c-.17-.11-.41-.18-.69-.18-1.71,0-2.81,3.17-2.81,4.79,0,.86.28,1.35.99,1.35s1.16-.78,1.49-1.51l1.02-4.45Z"/>
        <path class="cls-1" d="M88.46,37.63l2.59-10.9h4.08l-2.59,10.9h-4.08ZM91.76,23.96c0-.89.77-1.95,2.18-1.95,1.29,0,1.87.78,1.87,1.62,0,1.26-1.07,1.97-2.23,1.97-1.29,0-1.82-.73-1.82-1.64Z"/>
        <path class="cls-1" d="M94.9,37.63l1.76-7.42c.28-1.15.5-2.37.72-3.48h3.47l-.11,1.29h.06c.88-.89,2.18-1.46,3.66-1.46,2.04,0,2.75,1.11,2.75,2.48,0,.64-.14,1.37-.33,2.19l-1.51,6.4h-4.08l1.57-6.65c.08-.33.14-.64.14-1,0-.44-.22-.78-.69-.78-.61,0-1.51.71-2.01,2.79l-1.32,5.63h-4.08Z"/>
        <path class="cls-1" d="M108.59,39.12c.55.24,1.49.44,2.18.44,1.93,0,2.92-1.02,3.25-2.35l.28-1.13h-.06c-.85,1.02-1.87,1.46-3,1.46-1.98,0-2.89-1.53-2.95-3.1-.11-3.52,2.59-7.89,7.63-7.89,1.73,0,3.17.29,4.24.71l-2.15,9.22c-.41,1.77-1.16,3.26-2.42,4.23-1.18.93-2.89,1.35-4.98,1.35-1.05,0-2.51-.22-3-.47l.99-2.48ZM115.8,29.14c-.17-.07-.36-.09-.55-.09-1.68,0-2.95,2.81-2.95,4.48,0,.62.06,1.46.91,1.46.91,0,1.51-1.26,1.68-1.93l.91-3.92Z"/>
      </g>
      <g>
        <path class="cls-1" d="M7.23,9.07c1.11.91,2.23,1.81,3.34,2.72-1.29.97-3.38,2.83-4.89,5.82-1.72,3.43-1.75,6.52-1.75,8.02,0,3.18.76,6.13,2.29,8.84,1.53,2.71,3.58,4.82,6.16,6.31,2.58,1.49,5.48,2.24,8.69,2.24,4.87,0,8.93-1.67,12.18-5.01s4.88-7.55,4.88-12.63c0-5.59-2.19-10.26-6.57-14.03,1.02-.87,2.05-1.73,3.07-2.6.6.52,1.36,1.23,2.16,2.16.26.3,1.83,2.14,3.03,4.73,1.38,2.98,2.08,6.3,2.08,9.97,0,6.98-2.32,12.49-6.97,16.52-3.92,3.38-8.66,5.07-14.22,5.07-5.84,0-10.76-2.05-14.74-6.14C1.99,36.97,0,31.84,0,25.67c0-3.73.74-7.09,2.21-10.09,1.25-2.54,2.92-4.4,3.21-4.73.68-.76,1.31-1.35,1.81-1.79Z"/>
        <path class="cls-2" d="M20.96,13.47l-13.65,6.19v12.01l6.41-2.86v10.62c0,3.84,4.19,6.89,7.84,6.63,3.17-.23,6.63-3.34,6.63-6.63v-10.71l6.41,2.95v-12.01l-13.65-6.19ZM30.97,25.77l-6.43-2.87v4.28s.01.02.01.02v11.87c-.58,4.5-6.82,4.5-7.19-.26v-7.22h0v-8.69l-6.41,2.87v-3.51l10.01-4.63,10.01,4.63v3.51Z"/>
        <g>
          <polygon class="cls-2" points="20.96 7.54 14.18 3.78 14.16 3.79 7.29 .05 7.29 5.1 20.96 12.55 34.62 5.1 34.62 0 29.62 2.72 20.96 7.54"/>
          <path class="cls-2" d="M7.31,13.69h3.64c0-3.89-.01-7.78-.02-11.66-1.21-.66-2.43-1.32-3.64-1.97,0,4.55.01,9.09.02,13.64Z"/>
          <path class="cls-2" d="M30.98,13.69h3.64c0-4.56,0-9.12,0-13.69-1.22.66-2.44,1.32-3.66,1.98l.02,11.71Z"/>
        </g>
      </g>
    </g>
  </g>
</svg>